<svg viewBox="0 0 100 100" xmlns="http://www.w3.org/2000/svg">
  <circle cx="50" cy="50" r="48" fill="none" stroke="#9b8756" stroke-width="2"/>
  <g fill="#9b8756">
    <path d="M30 55 L30 35 L37 42 L37 55 Z" />
    <path d="M40 55 L40 30 L47 37 L47 55 Z" />
    <path d="M50 55 L50 25 L50 55 Z" stroke="#9b8756" stroke-width="2" />
    <path d="M53 55 L53 30 L60 37 L60 55 Z" />
    <path d="M63 55 L63 35 L70 42 L70 55 Z" />
  </g>
  <g fill="none" stroke="#9b8756" stroke-width="1.5" stroke-linecap="round">
    <path d="M25 65 Q37.5 60 50 65 T75 65" />
    <path d="M25 72 Q37.5 67 50 72 T75 72" />
    <path d="M25 79 Q37.5 74 50 79 T75 79" />
  </g>
</svg>
